{"title":"Mike Will Made It ft Miley Cyrus,Juicy.J - 23","uid":9405182,"size":150075879,"categoryP":"video","categoryS":"music_videos","magnet":"?xt=urn:btih:b581f498c4d30d4b80e056e12ff2e6a986e94d0a&amp;dn=Mike+Will+Made+It+ft+Miley+Cyrus%2CJuicy.J+-+23&amp;tr=udp%3A%2F%2Ftracker.openbittorrent.com%3A80&amp;tr=udp%3A%2F%2Fopen.demonii.com%3A1337&amp;tr=udp%3A%2F%2Ftracker.coppersurfer.tk%3A6969&amp;tr=udp%3A%2F%2Fexodus.desync.com%3A6969","seeders":2,"leechers":0,"uploader":"tlbslicer","files":5,"time":1388143812,"description":"Screenshots:\n &lt;a href=&quot;\nhttp://s29.postimg.org/9fv4ft5on/vlcsnap_1.png&quot; rel=&quot;nofollow&quot; target=&quot;_NEW&quot;&gt;\nhttp://s29.postimg.org/9fv4ft5on/vlcsnap_1.png&lt;/a&gt;\n &lt;a href=&quot;\nhttp://s29.postimg.org/45q5oilfr/vlcsnap_3.png&quot; rel=&quot;nofollow&quot; target=&quot;_NEW&quot;&gt;\nhttp://s29.postimg.org/45q5oilfr/vlcsnap_3.png&lt;/a&gt;\n &lt;a href=&quot;\nhttp://s29.postimg.org/kurlkfi13/vlcsnap_2.png&quot; rel=&quot;nofollow&quot; target=&quot;_NEW&quot;&gt;\nhttp://s29.postimg.org/kurlkfi13/vlcsnap_2.png&lt;/a&gt;\n\nFormat                                   : MPEG-4\nFormat profile                           : Base Media\nCodec ID                                 : isom\nFile size                                : 137 MiB\nDuration                                 : 4mn 6s\nOverall bit rate mode                    : Variable\nOverall bit rate                         : 4 666 Kbps\nWriting application                      : Lavf54.63.104\n\nVideo\nID                                       : 1\nFormat                                   : AVC\nFormat/Info                              : Advanced Video Codec\nFormat profile                           : &lt;a class=&quot;__cf_email__&quot; href=&quot;/cdn-cgi/l/email-protection&quot; data-cfemail=&quot;3b765a52557b770f150b&quot;&gt;[email&amp;#160;protected]&lt;/a&gt;&lt;script cf-hash='f9e31' type=&quot;text/javascript&quot;&gt;\n/* &lt;![CDATA[ */!function(){try{var t=&quot;currentScript&quot;in document?document.currentScript:function(){for(var t=document.getElementsByTagName(&quot;script&quot;),e=t.length;e--;)if(t[e].getAttribute(&quot;cf-hash&quot;))return t[e]}();if(t&amp;&amp;t.previousSibling){var e,r,n,i,c=t.previousSibling,a=c.getAttribute(&quot;data-cfemail&quot;);if(a){for(e=&quot;&quot;,r=parseInt(a.substr(0,2),16),n=2;a.length-n;n+=2)i=parseInt(a.substr(n,2),16)^r,e+=String.fromCharCode(i);e=document.createTextNode(e),c.parentNode.replaceChild(e,c)}}}catch(u){}}();/* ]]&gt; */&lt;/script&gt;\nFormat settings, CABAC                   : Yes\nFormat settings, ReFrames                : 4 frames\nCodec ID                                 : avc1\nCodec ID/Info                            : Advanced Video Coding\nDuration                                 : 4mn 6s\nBit rate                                 : 4 533 Kbps\nWidth                                    : 1 920 pixels\nHeight                                   : 1 088 pixels\nOriginal height                          : 1 080 pixels\nDisplay aspect ratio                     : 16:9\nOriginal display aspect ratio            : 16:9\nFrame rate mode                          : Variable\nFrame rate                               : 45.829 fps\nOriginal frame rate                      : 25.000 fps\nMinimum frame rate                       : 1.390 fps\nMaximum frame rate                       : 50.040 fps\nColor space                              : YUV\nChroma subsampling                       : 4:2:0\nBit depth                                : 8 bits\nScan type                                : MBAFF\nScan order                               : Top Field First\nBits/(Pixel*Frame)                       : 0.047\nStream size                              : 133 MiB (97%)\n\nAudio\nID                                       : 2\nFormat                                   : AAC\nFormat/Info                              : Advanced Audio Codec\nFormat profile                           : HE-AAC / LC\nCodec ID                                 : 40\nDuration                                 : 4mn 6s\nBit rate mode                            : Variable\nBit rate                                 : 127 Kbps\nMaximum bit rate                         : 128 Kbps\nChannel(s)                               : 2 channels\nChannel positions                        : Front: L R\nSampling rate                            : 48.0 KHz / 24.0 KHz\nCompression mode                         : Lossy\nStream size                              : 3.72 MiB (3%)\nLanguage                                 : English","torrent":{"xt":"urn:btih:b581f498c4d30d4b80e056e12ff2e6a986e94d0a","amp;dn":"Mike+Will+Made+It+ft+Miley+Cyrus%2CJuicy.J+-+23","amp;tr":["udp%3A%2F%2Ftracker.openbittorrent.com%3A80","udp%3A%2F%2Fopen.demonii.com%3A1337","udp%3A%2F%2Ftracker.coppersurfer.tk%3A6969","udp%3A%2F%2Fexodus.desync.com%3A6969"],"infoHash":"b581f498c4d30d4b80e056e12ff2e6a986e94d0a","infoHashBuffer":{"type":"Buffer","data":[181,129,244,152,196,211,13,75,128,224,86,225,47,242,230,169,134,233,77,10]},"announce":[],"urlList":[]}}